<?xml version="1.0" encoding="UTF-8" standalone="no"?>
<!-- Created with Inkscape (http://www.inkscape.org/) -->

<svg
   version="1.1"
   id="svg2208"
   xml:space="preserve"
   width="682.66669"
   height="682.66669"
   viewBox="0 0 682.66669 682.66669"
   xmlns="http://www.w3.org/2000/svg"
   xmlns:svg="http://www.w3.org/2000/svg"><defs
     id="defs2212"><clipPath
       clipPathUnits="userSpaceOnUse"
       id="clipPath2222"><path
         d="M 0,512 H 512 V 0 H 0 Z"
         id="path2220" /></clipPath></defs><g
     id="g2214"
     transform="matrix(1.3333333,0,0,-1.3333333,0,682.66667)"><g
       id="g2216"><g
         id="g2218"
         clip-path="url(#clipPath2222)"><g
           id="g2224"
           transform="translate(241,369.5)"><path
             d="M 0,0 V 73.736 C 0,86.538 8.124,97.93 20.229,102.1 L 115.729,135 125.5,106.636 30,73.736 V 0"
             style="fill:none;stroke:#000000;stroke-width:15;stroke-linecap:round;stroke-linejoin:round;stroke-miterlimit:10;stroke-dasharray:none;stroke-opacity:1"
             id="path2226" /></g><g
           id="g2228"
           transform="translate(130.5,294.5)"><path
             d="M 0,0 30.503,-287 H 220.497 L 251,0"
             style="fill:none;stroke:#000000;stroke-width:15;stroke-linecap:round;stroke-linejoin:round;stroke-miterlimit:10;stroke-dasharray:none;stroke-opacity:1"
             id="path2230" /></g><g
           id="g2232"
           transform="translate(162.2305,324.5)"><path
             d="m 0,0 h 234.27 c 8.284,0 15,-6.716 15,-15 0,-8.284 -6.716,-15 -15,-15 h -281 c -8.285,0 -15,6.715 -15,15 0,8.284 6.715,15 15,15 h 15 l 15.502,45 H 203.767 L 219.27,0"
             style="fill:none;stroke:#000000;stroke-width:15;stroke-linecap:round;stroke-linejoin:round;stroke-miterlimit:10;stroke-dasharray:none;stroke-opacity:1"
             id="path2234" /></g></g></g></g></svg>
