<?xml version="1.0" encoding="UTF-8" standalone="no"?>
<!-- Created with Inkscape (http://www.inkscape.org/) -->

<svg
   version="1.1"
   id="svg198"
   xml:space="preserve"
   width="682.66669"
   height="682.66669"
   viewBox="0 0 682.66669 682.66669"
   xmlns="http://www.w3.org/2000/svg"
   xmlns:svg="http://www.w3.org/2000/svg"><defs
     id="defs202"><clipPath
       clipPathUnits="userSpaceOnUse"
       id="clipPath212"><path
         d="M 0,512 H 512 V 0 H 0 Z"
         id="path210" /></clipPath></defs><g
     id="g204"
     transform="matrix(1.3333333,0,0,-1.3333333,0,682.66667)"><g
       id="g206"><g
         id="g208"
         clip-path="url(#clipPath212)"><g
           id="g214"
           transform="translate(395.2012,442.7856)"><path
             d="m 0,0 c -18.566,6.453 -38.486,9.73 -59.433,9.73 -50.978,0 -102.818,-19.529 -145.972,-54.989 -42.947,-35.289 -72.634,-82.538 -83.592,-133.044 -5.857,-26.996 -6.105,-53.426 -0.735,-78.552 5.355,-25.055 15.984,-47.575 31.593,-66.934 15.215,-18.87 34.294,-33.644 56.707,-43.913 22.59,-10.349 47.514,-15.597 74.079,-15.597 50.979,0 102.82,19.529 145.974,54.989 42.946,35.289 72.633,82.539 83.592,133.044 5.857,26.997 6.104,53.426 0.734,78.553 -5.354,25.054 -15.983,47.574 -31.593,66.933 -0.032,0.04 -0.066,0.079 -0.098,0.119"
             style="fill:none;stroke:#000000;stroke-width:20;stroke-linecap:round;stroke-linejoin:round;stroke-miterlimit:10;stroke-dasharray:none;stroke-opacity:1"
             id="path216" /></g><g
           id="g218"
           transform="translate(267.8496,99.4868)"><path
             d="m 0,0 c -86.303,0 -141.28,70.212 -122.555,156.514 18.725,86.302 104.172,156.514 190.474,156.514 86.303,0 141.28,-70.212 122.555,-156.514 C 171.749,70.212 86.302,0 0,0 Z"
             style="fill:none;stroke:#000000;stroke-width:20;stroke-linecap:round;stroke-linejoin:round;stroke-miterlimit:10;stroke-dasharray:none;stroke-opacity:1"
             id="path220" /></g><g
           id="g222"
           transform="translate(321.873,348.4722)"><path
             d="m 0,0 -20.063,-92.471 -39.849,-32.744"
             style="fill:none;stroke:#000000;stroke-width:20;stroke-linecap:round;stroke-linejoin:round;stroke-miterlimit:10;stroke-dasharray:none;stroke-opacity:1"
             id="path224" /></g><g
           id="g226"
           transform="translate(335.7686,412.5151)"><path
             d="M 0,0 -4.235,-19.521"
             style="fill:none;stroke:#000000;stroke-width:20;stroke-linecap:round;stroke-linejoin:round;stroke-miterlimit:10;stroke-dasharray:none;stroke-opacity:1"
             id="path228" /></g><g
           id="g230"
           transform="translate(279.5156,119.0083)"><path
             d="M 0,0 -4.236,-19.521"
             style="fill:none;stroke:#000000;stroke-width:20;stroke-linecap:round;stroke-linejoin:round;stroke-miterlimit:10;stroke-dasharray:none;stroke-opacity:1"
             id="path232" /></g><g
           id="g234"
           transform="translate(458.3232,256.001)"><path
             d="M 0,0 H -19.521"
             style="fill:none;stroke:#000000;stroke-width:20;stroke-linecap:round;stroke-linejoin:round;stroke-miterlimit:10;stroke-dasharray:none;stroke-opacity:1"
             id="path236" /></g><g
           id="g238"
           transform="translate(164.8164,256.001)"><path
             d="M 0,0 H -19.521"
             style="fill:none;stroke:#000000;stroke-width:20;stroke-linecap:round;stroke-linejoin:round;stroke-miterlimit:10;stroke-dasharray:none;stroke-opacity:1"
             id="path240" /></g><g
           id="g242"
           transform="translate(67,401.5151)"><path
             d="M 0,0 H 127.773"
             style="fill:none;stroke:#000000;stroke-width:20;stroke-linecap:round;stroke-linejoin:round;stroke-miterlimit:10;stroke-dasharray:none;stroke-opacity:1"
             id="path244" /></g><g
           id="g246"
           transform="translate(54.9482,196.4048)"><path
             d="M 0,0 H 144.623"
             style="fill:none;stroke:#000000;stroke-width:20;stroke-linecap:round;stroke-linejoin:round;stroke-miterlimit:10;stroke-dasharray:none;stroke-opacity:1"
             id="path248" /></g><g
           id="g250"
           transform="translate(10,315.4048)"><path
             d="M 0,0 H 68.27"
             style="fill:none;stroke:#000000;stroke-width:20;stroke-linecap:round;stroke-linejoin:round;stroke-miterlimit:10;stroke-dasharray:none;stroke-opacity:1"
             id="path252" /></g><g
           id="g254"
           transform="translate(36.3174,105.4048)"><path
             d="M 0,0 H 52.053"
             style="fill:none;stroke:#000000;stroke-width:20;stroke-linecap:round;stroke-linejoin:round;stroke-miterlimit:10;stroke-dasharray:none;stroke-opacity:1"
             id="path256" /></g><g
           id="g258"
           transform="translate(10,196.4048)"><path
             d="M 0,0 V 0"
             style="fill:none;stroke:#000000;stroke-width:20;stroke-linecap:round;stroke-linejoin:round;stroke-miterlimit:10;stroke-dasharray:none;stroke-opacity:1"
             id="path260" /></g><g
           id="g262"
           transform="translate(435.4062,422.0068)"><path
             d="M 0,0 V 0"
             style="fill:none;stroke:#000000;stroke-width:20;stroke-linecap:round;stroke-linejoin:round;stroke-miterlimit:10;stroke-dasharray:none;stroke-opacity:1"
             id="path264" /></g></g></g></g></svg>
