<svg id="line" height="512" viewBox="0 0 64 64" width="512" xmlns="http://www.w3.org/2000/svg"><g fill="rgb(0,0,0)"><path d="m34.22217 9.52393c-12.375-1.03606-21.1147 7.92142-23.8172 13.60276a1 1 0 1 0 1.76251.94509 23.11759 23.11759 0 0 1 18.30664-12.50684 13.82351 13.82351 0 0 1 3.55959-.04984 1.00014 1.00014 0 0 0 .18846-1.99117z"/><path d="m56.59229 18.64209c-11.04053-15.62256-25.34571-13.87695-26.88819-13.63184-19.65576 2.02735-25.2168 20.02002-25.45898 20.84175-1.46007 7.86426 5.14461 10.367 12.86461 10.3795 1.1335 0 2.345-.07415 3.58534-.18261l-2.8313 9.80121a10.43046 10.43046 0 0 0 10.03174 13.31152h10.33691c6.73007.18973 12.08117-6.89238 10.03157-13.31213l-2.83961-9.83869c6.276.61579 9.09063-.334 9.90082-.69146 7.56166-4.40058 4.29919-13.05674 1.26709-16.67725zm-10.25 27.76172a8.477 8.477 0 0 1 -8.11 10.7577l-10.33678.00011a8.47687 8.47687 0 0 1 -8.10973-10.75742l5.24077-18.1422c4.56622-.27252 10.81067-.5191 16.0011-.27111zm11.57571-17.83936a6.96949 6.96949 0 0 1 -3.46437 4.95655c-.28908.12583-2.96211 1.17387-9.629.41166-.369-1.33544-1.29281-4.4383-1.67568-5.80586a38.90961 38.90961 0 0 1 4.36232.59882 1.00222 1.00222 0 0 0 .21767-1.97562c-7.07717-1.41066-16.9911-.79843-23.65026-.44077-3.11262.19858-5.2865.39621-5.5528.42075a.99987.99987 0 1 0 .18457 1.99121c.05695-.00506 1.692-.15369 4.195-.3241l-1.61475 5.58973a40.72051 40.72051 0 0 1 -4.18085.24463c-6.55985-.09587-11.93927-1.63527-10.96352-7.72745.25041-.95035 5.315-17.47768 23.81563-19.5116 1.46626-.23167 14.65327-1.83225 25.0312 12.84988.36524.4585 3.5503 4.59864 2.92484 8.72217z"/></g></svg>